Coordinates
version=1
nRows=14
nColumns=24
inDegrees=yes

Units are S.I. units (second, meters, Newtons, ...)
Angles are in degrees.

endheader
time	pelvis_tilt	pelvis_list	pelvis_rotation	pelvis_tx	pelvis_ty	pelvis_tz	hip_flexion_r	hip_adduction_r	hip_rotation_r	knee_angle_r	ankle_angle_r	subtalar_angle_r	mtp_angle_r	hip_flexion_l	hip_adduction_l	hip_rotation_l	knee_angle_l	ankle_angle_l	subtalar_angle_l	mtp_angle_l	lumbar_extension	lumbar_bending	lumbar_rotation
      6.12500000	     -2.40854737	     10.18194560	    -10.04014402	      1.80254530	      1.00959475	     -0.32263633	      6.63471949	    -14.71217255	     -2.72308720	    -59.20623670	     -9.36083216	      5.64121970	      0.00000000	     20.68505486	     11.87312560	     -8.84132305	    -18.42977832	      9.23943353	     -8.37067955	      0.00000000	     -7.93558117	    -13.07060878	      6.05129947
      6.13000000	     -2.42086580	     10.37665559	    -10.11006648	      1.80875515	      1.01012745	     -0.32285222	      7.61048470	    -14.91134722	     -2.55120194	    -60.35908069	     -9.25844973	      4.65422769	      0.00000000	     20.23372938	     12.17394603	     -8.80773437	    -18.15380834	      9.45771615	     -8.43795851	      0.00000000	     -7.91857795	    -13.23497941	      5.86726229
      6.13500000	     -2.38018287	     10.53860531	    -10.10818133	      1.81506247	      1.01079390	     -0.32312480	      8.45985710	    -15.08107343	     -2.45878248	    -61.40510435	     -8.89075300	      3.79980017	      0.00000000	     19.68929140	     12.47917785	     -8.69450181	    -17.84836577	      9.68189611	     -8.45152475	      0.00000000	     -7.96562418	    -13.36572638	      5.56784686
      6.14000000	     -2.32778836	     10.65412488	    -10.09544688	      1.82139335	      1.01153026	     -0.32342572	      9.26778563	    -15.19905849	     -2.38801275	    -62.36471215	     -8.34275858	      3.05089185	      0.00000000	     19.10053765	     12.75267116	     -8.51447259	    -17.51003884	      9.91258542	     -8.48972952	      0.00000000	     -8.02684998	    -13.43640453	      5.27958645
      6.14500000	     -2.29573213	     10.74749365	    -10.06079318	      1.82762587	      1.01228183	     -0.32380897	     10.08826844	    -15.28886515	     -2.33457385	    -63.26444558	     -7.59667586	      2.43431581	      0.00000000	     18.52071226	     13.02100643	     -8.23207750	    -17.14326136	     10.00419095	     -8.70876292	      0.00000000	     -8.09042081	    -13.46582756	      4.98019674
      6.15000000	     -2.23712247	     10.76111753	    -10.01683477	      1.83387075	      1.01315497	     -0.32409845	     10.83401044	    -15.28212911	     -2.31540223	    -64.05726258	     -6.73201053	      1.87211737	      0.00000000	     17.88906497	     13.19712845	     -7.97380549	    -16.78870577	     10.21194623	     -8.70821349	      0.00000000	     -8.18679128	    -13.41645125	      4.69838954
      6.15500000	     -2.18277541	     10.80115354	     -9.89229486	      1.84019753	      1.01405397	     -0.32455243	     11.54222689	    -15.32299407	     -2.36636585	    -64.77532209	     -5.67460522	      1.51671789	      0.00000000	     17.22212652	     13.44376690	     -7.57448575	    -16.35587982	     10.23975701	     -8.94829700	      0.00000000	     -8.27975233	    -13.38280644	      4.26165674
      6.16000000	     -2.09723129	     10.74933529	     -9.77120101	      1.84638591	      1.01504966	     -0.32503937	     12.19628487	    -15.27212645	     -2.45621881	    -65.41096789	     -4.56156227	      1.19422503	      0.00000000	     16.50902938	     13.60721511	     -7.08387576	    -15.92724535	     10.23781754	     -9.27574740	      0.00000000	     -8.45018931	    -13.23695429	      3.90505669
      6.16500000	     -2.03474676	     10.67892974	     -9.62836374	      1.85261185	      1.01603254	     -0.32548692	     12.84777351	    -15.19159224	     -2.56340307	    -65.97156165	     -3.37393688	      0.98156225	      0.00000000	     15.81133948	     13.73211591	     -6.66594636	    -15.50678675	     10.32729429	     -9.43880797	      0.00000000	     -8.58074585	    -13.06879564	      3.50296269
      6.17000000	     -1.94062547	     10.58714969	     -9.45291491	      1.85884734	      1.01711145	     -0.32598289	     13.43004679	    -15.10576922	     -2.74602311	    -66.43858608	     -2.17128216	      0.75971160	      0.00000000	     15.04267991	     13.85794684	     -6.09646729	    -15.03104126	     10.27308147	     -9.76151351	      0.00000000	     -8.75548399	    -12.87735893	      3.09975881
      6.17500000	     -1.86502901	     10.46554936	     -9.26136866	      1.86505571	      1.01817533	     -0.32646691	     14.01034425	    -14.97805500	     -2.93417322	    -66.83663258	     -0.94142325	      0.63728524	      0.00000000	     14.28934412	     13.93729197	     -5.56740122	    -14.56443058	     10.26960874	     -9.99769763	      0.00000000	     -8.91261785	    -12.64855951	      2.67802094
      6.18000000	     -1.80064101	     10.31589643	     -9.05200702	      1.87125337	      1.01922090	     -0.32698515	     14.58023139	    -14.82051727	     -3.14395793	    -67.16609590	      0.28214693	      0.57432161	      0.00000000	     13.53886668	     13.98310616	     -5.03451879	    -14.09477222	     10.27234120	    -10.24549376	      0.00000000	     -9.05928045	    -12.37788067	      2.24072886
      6.18500000	     -1.72779872	     10.15480373	     -8.82011273	      1.87744484	      1.02031172	     -0.32749263	     15.11437306	    -14.65226522	     -3.39263201	    -67.41211366	      1.46513969	      0.50779374	      0.00000000	     12.75635976	     14.01423841	     -4.43124868	    -13.59323184	     10.20687876	    -10.50792166	      0.00000000	     -9.21742576	    -12.10016152	      1.80863557
      6.19000000	     -1.66195514	      9.97071315	     -8.57773903	      1.88361593	      1.02137584	     -0.32801013	     15.63922612	    -14.45645859	     -3.65045461	    -67.59510880	      2.60713051	      0.48495572	      0.00000000	     11.97766970	     14.01125465	     -3.84311919	    -13.09323618	     10.15770588	    -10.75842986	      0.00000000	     -9.36939992	    -11.79277024	      1.36825656
